<svg version="1.1" id="Layer_1" xmlns="http://www.w3.org/2000/svg" xmlns:xlink="http://www.w3.org/1999/xlink" x="0px" y="0px"
	 width="100%" viewBox="0 0 812 222" enable-background="new 0 0 812 222" xml:space="preserve">
<path fill="#DEE8F2" opacity="1.000000" stroke="none" 
	d="
M550.000000,223.000000 
	C366.710846,223.000000 183.921677,223.000000 1.066253,223.000000 
	C1.066253,149.062103 1.066253,75.124115 1.066253,1.093068 
	C271.666656,1.093068 542.333313,1.093068 812.968018,1.093068 
	C812.968018,75.078392 812.968018,149.039200 812.968018,223.000000 
	C725.457336,223.000000 637.978699,223.000000 550.000000,223.000000 
M15.805016,123.099670 
	C16.148458,123.085945 16.491903,123.072220 16.975105,123.841972 
	C17.711535,126.388092 18.352070,128.966644 19.200081,131.475037 
	C24.414984,146.900604 35.068066,159.140610 43.667126,172.549698 
	C47.456924,178.459381 52.647079,183.560181 57.639961,188.593216 
	C75.756851,206.855759 98.764481,213.899017 123.450684,213.189072 
	C149.905396,212.428268 172.647095,201.399841 191.748352,182.478943 
	C222.969650,151.552475 229.464584,98.253670 209.260498,62.662163 
	C195.979645,39.266621 179.053802,20.552649 152.330978,13.288519 
	C140.394302,10.043746 128.084076,7.216866 115.798645,6.413416 
	C91.365875,4.815548 68.460014,10.512730 49.218109,26.507660 
	C40.976040,33.358921 32.934189,40.760239 26.194345,49.044868 
	C12.319408,66.099968 7.730382,86.640007 7.032792,108.149925 
	C6.493182,124.788574 11.004951,140.028656 21.022116,153.540375 
	C20.009060,149.758713 18.360647,146.145111 17.488180,142.352997 
	C16.036409,136.042984 12.357818,129.918137 15.805016,123.099670 
M271.002716,139.489883 
	C271.724945,140.801437 272.442596,142.115524 273.170044,143.424164 
	C287.100739,168.484543 326.056305,171.470718 339.068481,148.298660 
	C339.161621,148.132858 339.591309,148.156067 340.440643,147.953354 
	C340.440643,152.282166 340.440643,156.496490 340.440643,160.714966 
	C346.263275,160.714966 351.503998,160.714966 356.766907,160.714966 
	C356.766907,112.685745 356.766907,64.949821 356.766907,17.121628 
	C350.968048,17.121628 345.413330,17.121628 339.131805,17.121628 
	C339.131805,34.856285 339.131805,52.304256 339.131805,70.678802 
	C336.667816,67.718246 335.094513,65.562759 333.244324,63.679333 
	C331.392517,61.794308 329.453644,59.874813 327.227173,58.496662 
	C306.972870,45.959435 279.015167,55.218670 269.477173,77.630272 
	C260.734009,98.174225 262.665833,118.561508 271.002716,139.489883 
M706.124023,152.331787 
	C709.483948,154.984634 712.533752,158.232681 716.263367,160.175995 
	C726.448914,165.483078 737.183350,164.644913 747.911621,161.781616 
	C756.858459,159.393784 763.870728,153.875427 770.453430,147.433594 
	C774.053162,161.908310 785.459534,166.987564 798.713867,160.477921 
	C798.713867,156.328629 798.713867,152.249725 798.713867,148.138809 
	C788.584229,149.597534 787.176636,148.341690 787.171387,138.145416 
	C787.161682,119.313972 787.163147,100.482506 787.137085,81.651085 
	C787.120667,69.784134 781.243591,61.707420 770.509094,57.353466 
	C755.189636,51.139812 739.611633,51.201122 724.201599,57.052677 
	C712.100586,61.647762 703.874939,75.419373 705.612061,87.839775 
	C709.357239,87.839775 713.177734,87.636238 716.965271,87.901909 
	C720.201172,88.128891 721.631592,87.168968 722.240662,83.773705 
	C723.830994,74.910088 729.505554,69.326645 738.257446,68.277573 
	C744.413513,67.539673 750.950012,67.947533 757.044739,69.183952 
	C767.116882,71.227249 771.367004,78.329315 769.764526,88.428848 
	C768.931763,93.678146 766.223206,96.288185 760.902527,96.974304 
	C750.335022,98.336990 739.768982,99.711029 729.200195,101.063263 
	C703.433289,104.360001 691.532471,129.965790 706.124023,152.331787 
M602.048767,77.523354 
	C611.331421,103.149033 620.415588,128.849548 630.031433,154.349579 
	C632.542297,161.007965 632.572510,166.633881 629.634033,173.196243 
	C622.749939,188.569946 621.890625,189.376053 605.254761,186.818863 
	C604.952271,186.772354 604.626099,186.879730 604.192383,186.928665 
	C604.192383,192.153595 604.192383,197.378342 604.192383,203.204193 
	C610.644714,203.204193 616.738525,203.377838 622.817688,203.154007 
	C628.577026,202.941956 632.968018,199.927063 635.842102,195.084290 
	C638.805359,190.091324 641.885376,185.054596 643.968140,179.670959 
	C655.192200,150.658829 666.182434,121.555527 677.124084,92.435089 
	C681.614868,80.483299 685.781738,68.409813 690.237854,55.996254 
	C685.028687,55.996254 680.352295,56.300941 675.736816,55.901978 
	C671.890869,55.569546 670.245850,56.913235 669.086121,60.551113 
	C661.139832,85.476357 652.976624,110.332512 644.858948,135.202988 
	C644.239868,137.099854 643.433960,138.935791 642.432861,141.531570 
	C641.748718,139.603683 641.341614,138.529694 640.984558,137.439285 
	C632.584900,111.788750 624.227844,86.124084 615.711853,60.512222 
	C615.144043,58.804466 613.477234,56.315620 612.152710,56.204617 
	C606.447327,55.726479 600.678833,56.000267 594.267273,56.000267 
	C596.957886,63.394180 599.392334,70.084229 602.048767,77.523354 
M493.158508,103.499954 
	C493.158508,122.585358 493.158508,141.670761 493.158508,160.778137 
	C499.419983,160.778137 505.017242,160.778137 511.005798,160.778137 
	C511.005798,158.764938 511.003387,156.973816 511.006134,155.182678 
	C511.034210,137.027588 510.808380,118.867470 511.166412,100.718880 
	C511.495667,84.032196 519.684143,72.841721 533.199951,69.431152 
	C543.612549,66.803642 554.579834,70.637383 558.210693,78.925728 
	C559.959961,82.918694 560.856750,87.585861 560.920288,91.965424 
	C561.227234,113.114693 561.119629,134.269974 561.158386,155.423126 
	C561.161621,157.189743 561.158813,158.956375 561.158813,160.793060 
	C567.388916,160.793060 572.985229,160.793060 578.770569,160.793060 
	C578.770569,134.979889 578.995483,109.375053 578.626099,83.778778 
	C578.522705,76.608391 575.968384,69.801949 570.985474,64.139267 
	C558.921326,50.429295 533.718506,48.959877 519.187134,61.299904 
	C516.027832,63.982800 513.054138,66.884224 509.700256,69.954750 
	C509.700256,65.234360 509.700256,60.660309 509.700256,56.307110 
	C503.996521,56.307110 498.736877,56.307110 493.158508,56.307110 
	C493.158508,71.911552 493.158508,87.205742 493.158508,103.499954 
M466.845337,122.500038 
	C466.845337,100.416618 466.845337,78.333199 466.845337,56.316235 
	C460.607483,56.316235 455.034302,56.316235 449.154297,56.316235 
	C449.154297,74.766968 449.127533,92.894913 449.166138,111.022736 
	C449.184113,119.451134 448.039612,127.575378 443.951843,135.129517 
	C438.230164,145.703003 426.265472,150.936630 414.206238,147.992340 
	C404.458221,145.612320 400.068756,138.680649 400.027771,125.187706 
	C399.962982,103.868034 400.009552,82.548012 400.009003,61.228142 
	C400.008972,59.611519 400.009003,57.994900 400.009003,56.337189 
	C393.836517,56.337189 388.128967,56.337189 382.307892,56.337189 
	C382.307892,82.475670 382.214752,108.269104 382.411530,134.060333 
	C382.440033,137.792755 383.411743,141.678864 384.708740,145.214417 
	C392.680878,166.946243 424.401855,168.047775 437.751129,158.177399 
	C442.247101,154.853119 445.959991,150.469772 450.373657,146.242065 
	C450.373657,151.235382 450.373657,155.985062 450.373657,160.696823 
	C456.036957,160.696823 461.277710,160.696823 466.845306,160.696823 
	C466.845306,148.091675 466.845306,135.795868 466.845337,122.500038 
z"/>
<path fill="#EA3727" opacity="1.000000" stroke="none" 
	d="
M15.289159,123.091438 
	C12.357818,129.918137 16.036409,136.042984 17.488180,142.352997 
	C18.360647,146.145111 20.009060,149.758713 21.022116,153.540375 
	C11.004951,140.028656 6.493182,124.788574 7.032792,108.149925 
	C7.730382,86.640007 12.319408,66.099968 26.194345,49.044868 
	C32.934189,40.760239 40.976040,33.358921 49.218109,26.507660 
	C68.460014,10.512730 91.365875,4.815548 115.798645,6.413416 
	C128.084076,7.216866 140.394302,10.043746 152.330978,13.288519 
	C179.053802,20.552649 195.979645,39.266621 209.260498,62.662163 
	C229.464584,98.253670 222.969650,151.552475 191.748352,182.478943 
	C172.647095,201.399841 149.905396,212.428268 123.450684,213.189072 
	C98.764481,213.899017 75.756851,206.855759 57.639961,188.593216 
	C52.647079,183.560181 47.456924,178.459381 43.667126,172.549698 
	C35.068066,159.140610 24.414984,146.900604 19.200081,131.475037 
	C18.352070,128.966644 17.711535,126.388092 16.929245,123.021591 
	C16.436537,115.755875 15.989689,109.310547 15.542842,102.865219 
	C15.458281,102.863686 15.373720,102.862152 15.289159,102.860611 
	C15.289159,109.604225 15.289159,116.347832 15.289159,123.091438 
M177.222870,158.007553 
	C176.257233,158.007553 175.291580,158.007553 173.914902,158.007553 
	C181.362091,146.860214 189.412582,136.632111 191.330551,123.077438 
	C192.968277,111.503365 192.137787,100.241043 189.077805,89.159790 
	C187.303772,82.735497 184.585785,76.547539 181.992676,70.379311 
	C177.847107,60.518143 171.155197,52.207630 162.273514,46.741837 
	C152.947632,41.002689 142.425140,37.208008 132.830429,32.751617 
	C132.230896,33.268898 132.708191,32.857090 133.870834,31.853977 
	C128.708618,31.853977 124.208771,32.383335 119.879112,31.749727 
	C109.066139,30.167343 98.629578,32.162548 88.697769,35.641407 
	C81.090332,38.306095 74.123627,42.899422 67.036781,46.925117 
	C58.662304,51.682251 50.634628,57.351994 46.161961,65.971878 
	C41.625797,74.714134 38.475208,84.205177 35.110355,93.510239 
	C33.814919,97.092583 33.601742,101.066277 32.836239,105.179840 
	C32.137280,104.363884 31.781284,103.948296 31.257824,103.337212 
	C31.257824,109.215866 31.257824,114.557106 31.257824,119.898346 
	C31.709799,119.965401 32.161774,120.032455 32.613750,120.099518 
	C33.292076,117.253159 33.970402,114.406799 34.490131,112.225952 
	C37.881100,127.771500 36.575905,145.304733 47.738880,159.148438 
	C48.174568,159.046494 48.610252,158.944534 49.045937,158.842590 
	C48.877552,157.537720 48.709171,156.232849 48.550636,155.004318 
	C52.431614,160.493866 56.273071,165.927521 60.114532,171.361191 
	C60.609268,171.044891 61.104004,170.728592 61.598740,170.412292 
	C60.762550,168.699432 59.926357,166.986572 59.090168,165.273727 
	C59.372463,164.887268 59.654762,164.500809 59.937057,164.114334 
	C75.795692,181.861221 94.471916,193.337219 118.990089,190.956390 
	C142.027023,188.719406 163.356247,182.439560 179.183090,164.250381 
	C178.662445,163.968292 178.141815,163.686203 177.621170,163.404114 
	C177.858231,161.768951 178.095291,160.133789 179.010223,158.219376 
	C179.284897,157.785492 179.559570,157.351593 179.834244,156.917725 
	C179.213806,157.267715 178.593369,157.617706 177.222870,158.007553 
M85.780693,195.904297 
	C87.449394,196.310959 89.118095,196.717621 90.786797,197.124298 
	C90.864548,196.875015 90.942299,196.625732 91.020050,196.376450 
	C82.083183,191.245117 73.146317,186.113770 64.209450,180.982437 
	C63.879528,181.537369 63.549599,182.092300 63.219673,182.647217 
	C70.485359,187.014374 77.751045,191.381516 85.780693,195.904297 
M62.874729,171.590027 
	C62.481014,171.504700 62.087299,171.419388 61.693584,171.334061 
	C61.664642,171.601517 61.561199,172.082611 61.618553,172.102615 
	C62.079929,172.263519 62.571621,172.337509 62.874729,171.590027 
z"/>
<path fill="#110B4B" opacity="1.000000" stroke="none" 
	d="
M270.859070,139.142853 
	C262.665833,118.561508 260.734009,98.174225 269.477173,77.630272 
	C279.015167,55.218670 306.972870,45.959435 327.227173,58.496662 
	C329.453644,59.874813 331.392517,61.794308 333.244324,63.679333 
	C335.094513,65.562759 336.667816,67.718246 339.131805,70.678802 
	C339.131805,52.304256 339.131805,34.856285 339.131805,17.121628 
	C345.413330,17.121628 350.968048,17.121628 356.766907,17.121628 
	C356.766907,64.949821 356.766907,112.685745 356.766907,160.714966 
	C351.503998,160.714966 346.263275,160.714966 340.440643,160.714966 
	C340.440643,156.496490 340.440643,152.282166 340.440643,147.953354 
	C339.591309,148.156067 339.161621,148.132858 339.068481,148.298660 
	C326.056305,171.470718 287.100739,168.484543 273.170044,143.424164 
	C272.442596,142.115524 271.724945,140.801437 270.859070,139.142853 
M311.408844,68.865746 
	C296.072021,69.236031 287.793274,75.176743 284.207245,89.552948 
	C280.887421,102.861946 281.028870,116.334145 285.470032,129.446365 
	C287.928772,136.705612 292.101837,142.932953 299.434174,146.217010 
	C315.939178,153.609360 333.696289,144.225357 337.801239,125.370872 
	C340.757233,111.793724 339.825958,98.088943 334.728821,85.083954 
	C330.846588,75.178726 323.460938,69.202812 311.408844,68.865746 
z"/>
<path fill="#110B4A" opacity="1.000000" stroke="none" 
	d="
M705.869568,152.076538 
	C691.532471,129.965790 703.433289,104.360001 729.200195,101.063263 
	C739.768982,99.711029 750.335022,98.336990 760.902527,96.974304 
	C766.223206,96.288185 768.931763,93.678146 769.764526,88.428848 
	C771.367004,78.329315 767.116882,71.227249 757.044739,69.183952 
	C750.950012,67.947533 744.413513,67.539673 738.257446,68.277573 
	C729.505554,69.326645 723.830994,74.910088 722.240662,83.773705 
	C721.631592,87.168968 720.201172,88.128891 716.965271,87.901909 
	C713.177734,87.636238 709.357239,87.839775 705.612061,87.839775 
	C703.874939,75.419373 712.100586,61.647762 724.201599,57.052677 
	C739.611633,51.201122 755.189636,51.139812 770.509094,57.353466 
	C781.243591,61.707420 787.120667,69.784134 787.137085,81.651085 
	C787.163147,100.482506 787.161682,119.313972 787.171387,138.145416 
	C787.176636,148.341690 788.584229,149.597534 798.713867,148.138809 
	C798.713867,152.249725 798.713867,156.328629 798.713867,160.477921 
	C785.459534,166.987564 774.053162,161.908310 770.453430,147.433594 
	C763.870728,153.875427 756.858459,159.393784 747.911621,161.781616 
	C737.183350,164.644913 726.448914,165.483078 716.263367,160.175995 
	C712.533752,158.232681 709.483948,154.984634 705.869568,152.076538 
M769.832947,110.388901 
	C769.791443,109.610413 769.749939,108.831917 769.720093,108.272598 
	C765.224121,109.391975 760.955322,110.655998 756.604614,111.495461 
	C747.975769,113.160416 739.140991,113.994850 730.688049,116.273262 
	C720.662170,118.975632 716.686707,125.667923 718.210022,134.843582 
	C719.747803,144.106476 725.596191,148.906189 735.658752,149.087845 
	C737.816589,149.126816 739.992554,149.102249 742.135498,148.874603 
	C759.914490,146.985992 769.832947,135.973999 769.833008,118.199097 
	C769.833008,115.870895 769.833008,113.542694 769.832947,110.388901 
z"/>
<path fill="#110B4A" opacity="1.000000" stroke="none" 
	d="
M601.937744,77.148811 
	C599.392334,70.084229 596.957886,63.394180 594.267273,56.000267 
	C600.678833,56.000267 606.447327,55.726479 612.152710,56.204617 
	C613.477234,56.315620 615.144043,58.804466 615.711853,60.512222 
	C624.227844,86.124084 632.584900,111.788750 640.984558,137.439285 
	C641.341614,138.529694 641.748718,139.603683 642.432861,141.531570 
	C643.433960,138.935791 644.239868,137.099854 644.858948,135.202988 
	C652.976624,110.332512 661.139832,85.476357 669.086121,60.551113 
	C670.245850,56.913235 671.890869,55.569546 675.736816,55.901978 
	C680.352295,56.300941 685.028687,55.996254 690.237854,55.996254 
	C685.781738,68.409813 681.614868,80.483299 677.124084,92.435089 
	C666.182434,121.555527 655.192200,150.658829 643.968140,179.670959 
	C641.885376,185.054596 638.805359,190.091324 635.842102,195.084290 
	C632.968018,199.927063 628.577026,202.941956 622.817688,203.154007 
	C616.738525,203.377838 610.644714,203.204193 604.192383,203.204193 
	C604.192383,197.378342 604.192383,192.153595 604.192383,186.928665 
	C604.626099,186.879730 604.952271,186.772354 605.254761,186.818863 
	C621.890625,189.376053 622.749939,188.569946 629.634033,173.196243 
	C632.572510,166.633881 632.542297,161.007965 630.031433,154.349579 
	C620.415588,128.849548 611.331421,103.149033 601.937744,77.148811 
z"/>
<path fill="#110B4A" opacity="1.000000" stroke="none" 
	d="
M493.158508,102.999947 
	C493.158508,87.205742 493.158508,71.911552 493.158508,56.307110 
	C498.736877,56.307110 503.996521,56.307110 509.700256,56.307110 
	C509.700256,60.660309 509.700256,65.234360 509.700256,69.954750 
	C513.054138,66.884224 516.027832,63.982800 519.187134,61.299904 
	C533.718506,48.959877 558.921326,50.429295 570.985474,64.139267 
	C575.968384,69.801949 578.522705,76.608391 578.626099,83.778778 
	C578.995483,109.375053 578.770569,134.979889 578.770569,160.793060 
	C572.985229,160.793060 567.388916,160.793060 561.158813,160.793060 
	C561.158813,158.956375 561.161621,157.189743 561.158386,155.423126 
	C561.119629,134.269974 561.227234,113.114693 560.920288,91.965424 
	C560.856750,87.585861 559.959961,82.918694 558.210693,78.925728 
	C554.579834,70.637383 543.612549,66.803642 533.199951,69.431152 
	C519.684143,72.841721 511.495667,84.032196 511.166412,100.718880 
	C510.808380,118.867470 511.034210,137.027588 511.006134,155.182678 
	C511.003387,156.973816 511.005798,158.764938 511.005798,160.778137 
	C505.017242,160.778137 499.419983,160.778137 493.158508,160.778137 
	C493.158508,141.670761 493.158508,122.585358 493.158508,102.999947 
z"/>
<path fill="#120C4B" opacity="1.000000" stroke="none" 
	d="
M466.845337,123.000046 
	C466.845306,135.795868 466.845306,148.091675 466.845306,160.696823 
	C461.277710,160.696823 456.036957,160.696823 450.373657,160.696823 
	C450.373657,155.985062 450.373657,151.235382 450.373657,146.242065 
	C445.959991,150.469772 442.247101,154.853119 437.751129,158.177399 
	C424.401855,168.047775 392.680878,166.946243 384.708740,145.214417 
	C383.411743,141.678864 382.440033,137.792755 382.411530,134.060333 
	C382.214752,108.269104 382.307892,82.475670 382.307892,56.337189 
	C388.128967,56.337189 393.836517,56.337189 400.009003,56.337189 
	C400.009003,57.994900 400.008972,59.611519 400.009003,61.228142 
	C400.009552,82.548012 399.962982,103.868034 400.027771,125.187706 
	C400.068756,138.680649 404.458221,145.612320 414.206238,147.992340 
	C426.265472,150.936630 438.230164,145.703003 443.951843,135.129517 
	C448.039612,127.575378 449.184113,119.451134 449.166138,111.022736 
	C449.127533,92.894913 449.154297,74.766968 449.154297,56.316235 
	C455.034302,56.316235 460.607483,56.316235 466.845337,56.316235 
	C466.845337,78.333199 466.845337,100.416618 466.845337,123.000046 
z"/>
<path fill="#DFBABE" opacity="1.000000" stroke="none" 
	d="
M15.547087,123.095551 
	C15.289159,116.347832 15.289159,109.604225 15.289159,102.860611 
	C15.373720,102.862152 15.458281,102.863686 15.542842,102.865219 
	C15.989689,109.310547 16.436537,115.755875 16.859364,122.629852 
	C16.491903,123.072220 16.148458,123.085945 15.547087,123.095551 
z"/>
<path fill="#DCE7F2" opacity="1.000000" stroke="none" 
	d="
M178.332336,158.498627 
	C178.095291,160.133789 177.858231,161.768951 177.621170,163.404114 
	C178.141815,163.686203 178.662445,163.968292 179.183090,164.250381 
	C163.356247,182.439560 142.027023,188.719406 118.990089,190.956390 
	C94.471916,193.337219 75.795692,181.861221 59.937057,164.114334 
	C59.654762,164.500809 59.372463,164.887268 59.090168,165.273727 
	C59.926357,166.986572 60.762550,168.699432 61.598740,170.412292 
	C61.104004,170.728592 60.609268,171.044891 60.114532,171.361191 
	C56.273071,165.927521 52.431614,160.493866 48.550636,155.004318 
	C48.709171,156.232849 48.877552,157.537720 49.045937,158.842590 
	C48.610252,158.944534 48.174568,159.046494 47.738880,159.148438 
	C36.575905,145.304733 37.881100,127.771500 34.490131,112.225952 
	C33.970402,114.406799 33.292076,117.253159 32.613750,120.099518 
	C32.161774,120.032455 31.709799,119.965401 31.257824,119.898346 
	C31.257824,114.557106 31.257824,109.215866 31.257824,103.337212 
	C31.781284,103.948296 32.137280,104.363884 32.836239,105.179840 
	C33.601742,101.066277 33.814919,97.092583 35.110355,93.510239 
	C38.475208,84.205177 41.625797,74.714134 46.161961,65.971878 
	C50.634628,57.351994 58.662304,51.682251 67.036781,46.925117 
	C74.123627,42.899422 81.090332,38.306095 88.697769,35.641407 
	C98.629578,32.162548 109.066139,30.167343 119.879112,31.749727 
	C124.208771,32.383335 128.708618,31.853977 133.870834,31.853977 
	C132.708191,32.857090 132.230896,33.268898 132.830429,32.751617 
	C142.425140,37.208008 152.947632,41.002689 162.273514,46.741837 
	C171.155197,52.207630 177.847107,60.518143 181.992676,70.379311 
	C184.585785,76.547539 187.303772,82.735497 189.077805,89.159790 
	C192.137787,100.241043 192.968277,111.503365 191.330551,123.077438 
	C189.412582,136.632111 181.362091,146.860214 173.914902,158.007553 
	C175.291580,158.007553 176.257233,158.007553 177.690033,158.118805 
	C178.157181,158.230072 178.332336,158.498627 178.332336,158.498627 
z"/>
<path fill="#DECCD3" opacity="1.000000" stroke="none" 
	d="
M85.398712,195.826477 
	C77.751045,191.381516 70.485359,187.014374 63.219673,182.647217 
	C63.549599,182.092300 63.879528,181.537369 64.209450,180.982437 
	C73.146317,186.113770 82.083183,191.245117 91.020050,196.376450 
	C90.942299,196.625732 90.864548,196.875015 90.786797,197.124298 
	C89.118095,196.717621 87.449394,196.310959 85.398712,195.826477 
z"/>
<path fill="#DCE7F2" opacity="1.000000" stroke="none" 
	d="
M178.065063,158.098892 
	C178.593369,157.617706 179.213806,157.267715 179.834244,156.917725 
	C179.559570,157.351593 179.284897,157.785492 178.671280,158.359009 
	C178.332336,158.498627 178.157181,158.230072 178.065063,158.098892 
z"/>
<path fill="#DCE7F2" opacity="1.000000" stroke="none" 
	d="
M62.964390,172.014038 
	C62.571621,172.337509 62.079929,172.263519 61.618553,172.102615 
	C61.561199,172.082611 61.664642,171.601517 61.693584,171.334061 
	C62.087299,171.419388 62.481014,171.504700 62.964390,172.014038 
z"/>
<path fill="#DBE6F1" opacity="1.000000" stroke="none" 
	d="
M311.861938,68.881584 
	C323.460938,69.202812 330.846588,75.178726 334.728821,85.083954 
	C339.825958,98.088943 340.757233,111.793724 337.801239,125.370872 
	C333.696289,144.225357 315.939178,153.609360 299.434174,146.217010 
	C292.101837,142.932953 287.928772,136.705612 285.470032,129.446365 
	C281.028870,116.334145 280.887421,102.861946 284.207245,89.552948 
	C287.793274,75.176743 296.072021,69.236031 311.861938,68.881584 
z"/>
<path fill="#DCE6F1" opacity="1.000000" stroke="none" 
	d="
M769.833008,110.801697 
	C769.833008,113.542694 769.833008,115.870895 769.833008,118.199097 
	C769.832947,135.973999 759.914490,146.985992 742.135498,148.874603 
	C739.992554,149.102249 737.816589,149.126816 735.658752,149.087845 
	C725.596191,148.906189 719.747803,144.106476 718.210022,134.843582 
	C716.686707,125.667923 720.662170,118.975632 730.688049,116.273262 
	C739.140991,113.994850 747.975769,113.160416 756.604614,111.495461 
	C760.955322,110.655998 765.224121,109.391975 769.720093,108.272598 
	C769.749939,108.831917 769.791443,109.610413 769.833008,110.801697 
z"/>
</svg>